<svg width="24" height="24" viewBox="0 0 24 24" fill="none" xmlns="http://www.w3.org/2000/svg">
<g clip-path="url(#clip0_435_173)">
<path fill-rule="evenodd" clip-rule="evenodd" d="M20.5027 3.48773C18.2468 1.23984 15.2466 0.00126346 12.0502 0C5.46407 0 0.103801 5.33464 0.101166 11.8918C0.100287 13.9878 0.650531 16.0338 1.69612 17.8373L0.000976562 24L6.33532 22.3463C8.08054 23.2937 10.0455 23.793 12.0454 23.7938H12.0503C18.6357 23.7938 23.9965 18.4585 23.9991 11.9013C24.0004 8.72359 22.7587 5.73561 20.5027 3.48773ZM12.0503 21.7852H12.0462C10.2642 21.7845 8.51625 21.308 6.99144 20.4074L6.62876 20.1932L2.86992 21.1746L3.87325 17.527L3.63707 17.153C2.64293 15.5792 2.11784 13.7602 2.11862 11.8925C2.1208 6.4425 6.57608 2.00857 12.0542 2.00857C14.7069 2.00958 17.2005 3.0391 19.0756 4.90746C20.9507 6.77583 21.9827 9.25933 21.9817 11.9005C21.9794 17.3509 17.5242 21.7852 12.0503 21.7852ZM17.4979 14.3822C17.1993 14.2334 15.7315 13.5145 15.4578 13.4154C15.1841 13.3162 14.9851 13.2666 14.786 13.5641C14.587 13.8616 14.0148 14.5309 13.8406 14.7292C13.6665 14.9276 13.4924 14.9524 13.1938 14.8036C12.8952 14.6549 11.9332 14.3411 10.7928 13.3287C9.9053 12.5409 9.30605 11.5677 9.13189 11.2702C8.95774 10.9727 9.11338 10.8119 9.26283 10.6637C9.39712 10.5306 9.56138 10.3167 9.71068 10.1431C9.85993 9.96962 9.90969 9.84567 10.0092 9.64738C10.1087 9.44905 10.059 9.2755 9.98433 9.12677C9.90969 8.97803 9.31262 7.5154 9.06379 6.92045C8.82147 6.341 8.57531 6.4194 8.39204 6.41033C8.21809 6.40171 8.01885 6.39987 7.81984 6.39987C7.62079 6.39987 7.29735 6.47425 7.02366 6.77171C6.75 7.06921 5.97875 7.78812 5.97875 9.25072C5.97875 10.7055 7.03708 12.1111 7.19536 12.3213L7.19784 12.3246C7.3471 12.523 9.30312 15.5245 12.2981 16.8116C13.0104 17.1178 13.5666 17.3006 14.0002 17.4376C14.7154 17.6637 15.3663 17.6318 15.8807 17.5553C16.4543 17.47 17.6471 16.8364 17.896 16.1423C18.1448 15.4482 18.1448 14.8532 18.0701 14.7293C17.9955 14.6053 17.7965 14.5309 17.4979 14.3822Z" fill="white"/>
</g>
<defs>
<clipPath id="clip0_435_173">
<rect width="24" height="24" fill="white"/>
</clipPath>
</defs>
</svg>
