<svg width="0" height="0" class="hidden">
   <symbol fill="none" xmlns="http://www.w3.org/2000/svg" viewBox="0 0 24 24" id="tg">
    <path d="M20.9726 3.51L3.48924 10.1521C2.29094 10.6136 2.3121 11.2673 3.28373 11.571L7.75959 12.9468L18.1423 6.5057C18.6244 6.19005 19.0716 6.36872 18.706 6.68586L10.3043 14.1647L9.98241 18.7104C10.4509 18.7104 10.6549 18.5094 10.8966 18.2711L13.0832 16.1956L17.6165 19.4876C18.443 19.9491 19.0339 19.7109 19.2545 18.7312L22.2313 4.91256L22.2298 4.91405C22.4928 3.70505 21.7841 3.22115 20.9726 3.51Z" fill="white"></path>
  </symbol>
  <symbol fill="none" xmlns="http://www.w3.org/2000/svg" viewBox="0 0 24 24" id="wa">
    <g clip-path="url(#clip0_435_173)">
      <path fill-rule="evenodd" clip-rule="evenodd" d="M20.5027 3.48773C18.2468 1.23984 15.2466 0.00126346 12.0502 0C5.46407 0 0.103801 5.33464 0.101166 11.8918C0.100287 13.9878 0.650531 16.0338 1.69612 17.8373L0.000976562 24L6.33532 22.3463C8.08054 23.2937 10.0455 23.793 12.0454 23.7938H12.0503C18.6357 23.7938 23.9965 18.4585 23.9991 11.9013C24.0004 8.72359 22.7587 5.73561 20.5027 3.48773ZM12.0503 21.7852H12.0462C10.2642 21.7845 8.51625 21.308 6.99144 20.4074L6.62876 20.1932L2.86992 21.1746L3.87325 17.527L3.63707 17.153C2.64293 15.5792 2.11784 13.7602 2.11862 11.8925C2.1208 6.4425 6.57608 2.00857 12.0542 2.00857C14.7069 2.00958 17.2005 3.0391 19.0756 4.90746C20.9507 6.77583 21.9827 9.25933 21.9817 11.9005C21.9794 17.3509 17.5242 21.7852 12.0503 21.7852ZM17.4979 14.3822C17.1993 14.2334 15.7315 13.5145 15.4578 13.4154C15.1841 13.3162 14.9851 13.2666 14.786 13.5641C14.587 13.8616 14.0148 14.5309 13.8406 14.7292C13.6665 14.9276 13.4924 14.9524 13.1938 14.8036C12.8952 14.6549 11.9332 14.3411 10.7928 13.3287C9.9053 12.5409 9.30605 11.5677 9.13189 11.2702C8.95774 10.9727 9.11338 10.8119 9.26283 10.6637C9.39712 10.5306 9.56138 10.3167 9.71068 10.1431C9.85993 9.96962 9.90969 9.84567 10.0092 9.64738C10.1087 9.44905 10.059 9.2755 9.98433 9.12677C9.90969 8.97803 9.31262 7.5154 9.06379 6.92045C8.82147 6.341 8.57531 6.4194 8.39204 6.41033C8.21809 6.40171 8.01885 6.39987 7.81984 6.39987C7.62079 6.39987 7.29735 6.47425 7.02366 6.77171C6.75 7.06921 5.97875 7.78812 5.97875 9.25072C5.97875 10.7055 7.03708 12.1111 7.19536 12.3213L7.19784 12.3246C7.3471 12.523 9.30312 15.5245 12.2981 16.8116C13.0104 17.1178 13.5666 17.3006 14.0002 17.4376C14.7154 17.6637 15.3663 17.6318 15.8807 17.5553C16.4543 17.47 17.6471 16.8364 17.896 16.1423C18.1448 15.4482 18.1448 14.8532 18.0701 14.7293C17.9955 14.6053 17.7965 14.5309 17.4979 14.3822Z" fill="white"></path>
    </g>
    <defs>
      <clipPath id="clip0_435_173">
        <rect width="24" height="24" fill="white"></rect>
      </clipPath>
    </defs>
  </symbol>
  <symbol fill="none" xmlns="http://www.w3.org/2000/svg" viewBox="0 0 18 18" id="map-pin">
    <path d="M15.75 7.5C15.75 12.75 9 17.25 9 17.25C9 17.25 2.25 12.75 2.25 7.5C2.25 5.70979 2.96116 3.9929 4.22703 2.72703C5.4929 1.46116 7.20979 0.75 9 0.75C10.7902 0.75 12.5071 1.46116 13.773 2.72703C15.0388 3.9929 15.75 5.70979 15.75 7.5Z" stroke="#272624" stroke-linecap="round" stroke-linejoin="round"></path>
    <path d="M9 9.75C10.2426 9.75 11.25 8.74264 11.25 7.5C11.25 6.25736 10.2426 5.25 9 5.25C7.75736 5.25 6.75 6.25736 6.75 7.5C6.75 8.74264 7.75736 9.75 9 9.75Z" stroke="#272624" stroke-linecap="round" stroke-linejoin="round"></path>
  </symbol>
  <symbol fill="none" xmlns="http://www.w3.org/2000/svg" viewBox="0 0 18 18" id="clock">
    <path d="M8.99998 0C4.02978 0 0 4.02978 0 8.99998C0 13.9701 4.02978 18 8.99998 18C13.9702 18 17.9999 13.9701 17.9999 8.99998C17.9999 4.02978 13.9702 0 8.99998 0ZM9.56252 16.8464V15.7499H8.43748V16.8464C4.54506 16.5697 1.43046 13.455 1.15361 9.5626H2.24998V8.43755H1.15361C1.43046 4.54503 4.54506 1.43043 8.43748 1.15357V2.24994H9.56252V1.15361C13.455 1.43043 16.5695 4.54506 16.8463 8.43759H15.75V9.56263H16.8463C16.5695 13.455 13.4549 16.5697 9.56252 16.8464ZM13.1407 6.60933C13.2176 6.74344 13.1715 6.91598 13.0375 6.99396L10.0663 8.70884C10.092 8.80444 10.125 8.89678 10.125 8.99998C10.125 9.6218 9.62121 10.1249 9.00002 10.1249C8.37864 10.1249 7.87497 9.6218 7.87497 8.99998L4.82192 7.23776C4.5527 7.08184 4.46048 6.73791 4.61588 6.46877C4.77073 6.19852 5.11517 6.1063 5.38435 6.26233L8.45506 8.03549C8.6187 7.94323 8.7978 7.87509 9.00002 7.87509C9.31427 7.87509 9.59698 8.0047 9.80146 8.21348L12.7562 6.50613C12.8881 6.42808 13.0605 6.47422 13.1407 6.60933Z" fill="#272624"></path>
  </symbol>
  <symbol fill="none" xmlns="http://www.w3.org/2000/svg" viewBox="0 0 18 18" id="phone">
    <path d="M16.5001 12.6901V14.9401C16.5009 15.1489 16.4581 15.3557 16.3745 15.5471C16.2908 15.7385 16.168 15.9103 16.0141 16.0515C15.8602 16.1927 15.6785 16.3002 15.4806 16.3671C15.2828 16.434 15.0731 16.4589 14.8651 16.4401C12.5572 16.1893 10.3403 15.4007 8.39257 14.1376C6.58044 12.9861 5.04407 11.4497 3.89257 9.63757C2.62506 7.68098 1.83625 5.45332 1.59007 3.13507C1.57133 2.92767 1.59598 2.71864 1.66245 2.52129C1.72892 2.32394 1.83575 2.14259 1.97615 1.98879C2.11654 1.83499 2.28743 1.7121 2.47792 1.62796C2.6684 1.54382 2.87433 1.50027 3.08257 1.50007H5.33257C5.69655 1.49649 6.04942 1.62538 6.32539 1.86272C6.60137 2.10006 6.78163 2.42966 6.83257 2.79007C6.92754 3.51012 7.10366 4.21712 7.35757 4.89757C7.45848 5.16602 7.48032 5.45776 7.4205 5.73823C7.36069 6.01871 7.22172 6.27616 7.02007 6.48007L6.06757 7.43257C7.13524 9.31023 8.68991 10.8649 10.5676 11.9326L11.5201 10.9801C11.724 10.7784 11.9814 10.6395 12.2619 10.5796C12.5424 10.5198 12.8341 10.5417 13.1026 10.6426C13.783 10.8965 14.49 11.0726 15.2101 11.1676C15.5744 11.219 15.9071 11.4025 16.145 11.6832C16.3828 11.9639 16.5092 12.3223 16.5001 12.6901Z" stroke="#272624" stroke-linecap="round" stroke-linejoin="round"></path>
  </symbol>
</svg>