<svg width="0" height="0" class="hidden">
   <symbol fill="none" xmlns="http://www.w3.org/2000/svg" viewBox="0 0 24 24" id="tg">
    <path d="M20.9726 3.51L3.48924 10.1521C2.29094 10.6136 2.3121 11.2673 3.28373 11.571L7.75959 12.9468L18.1423 6.5057C18.6244 6.19005 19.0716 6.36872 18.706 6.68586L10.3043 14.1647L9.98241 18.7104C10.4509 18.7104 10.6549 18.5094 10.8966 18.2711L13.0832 16.1956L17.6165 19.4876C18.443 19.9491 19.0339 19.7109 19.2545 18.7312L22.2313 4.91256L22.2298 4.91405C22.4928 3.70505 21.7841 3.22115 20.9726 3.51Z" fill="currentColor"></path>
  </symbol>
  <symbol fill="none" xmlns="http://www.w3.org/2000/svg" viewBox="0 0 24 24" id="wa">
    <g clip-path="url(#clip0_435_173)">
      <path fill-rule="evenodd" clip-rule="evenodd" d="M20.5027 3.48773C18.2468 1.23984 15.2466 0.00126346 12.0502 0C5.46407 0 0.103801 5.33464 0.101166 11.8918C0.100287 13.9878 0.650531 16.0338 1.69612 17.8373L0.000976562 24L6.33532 22.3463C8.08054 23.2937 10.0455 23.793 12.0454 23.7938H12.0503C18.6357 23.7938 23.9965 18.4585 23.9991 11.9013C24.0004 8.72359 22.7587 5.73561 20.5027 3.48773ZM12.0503 21.7852H12.0462C10.2642 21.7845 8.51625 21.308 6.99144 20.4074L6.62876 20.1932L2.86992 21.1746L3.87325 17.527L3.63707 17.153C2.64293 15.5792 2.11784 13.7602 2.11862 11.8925C2.1208 6.4425 6.57608 2.00857 12.0542 2.00857C14.7069 2.00958 17.2005 3.0391 19.0756 4.90746C20.9507 6.77583 21.9827 9.25933 21.9817 11.9005C21.9794 17.3509 17.5242 21.7852 12.0503 21.7852ZM17.4979 14.3822C17.1993 14.2334 15.7315 13.5145 15.4578 13.4154C15.1841 13.3162 14.9851 13.2666 14.786 13.5641C14.587 13.8616 14.0148 14.5309 13.8406 14.7292C13.6665 14.9276 13.4924 14.9524 13.1938 14.8036C12.8952 14.6549 11.9332 14.3411 10.7928 13.3287C9.9053 12.5409 9.30605 11.5677 9.13189 11.2702C8.95774 10.9727 9.11338 10.8119 9.26283 10.6637C9.39712 10.5306 9.56138 10.3167 9.71068 10.1431C9.85993 9.96962 9.90969 9.84567 10.0092 9.64738C10.1087 9.44905 10.059 9.2755 9.98433 9.12677C9.90969 8.97803 9.31262 7.5154 9.06379 6.92045C8.82147 6.341 8.57531 6.4194 8.39204 6.41033C8.21809 6.40171 8.01885 6.39987 7.81984 6.39987C7.62079 6.39987 7.29735 6.47425 7.02366 6.77171C6.75 7.06921 5.97875 7.78812 5.97875 9.25072C5.97875 10.7055 7.03708 12.1111 7.19536 12.3213L7.19784 12.3246C7.3471 12.523 9.30312 15.5245 12.2981 16.8116C13.0104 17.1178 13.5666 17.3006 14.0002 17.4376C14.7154 17.6637 15.3663 17.6318 15.8807 17.5553C16.4543 17.47 17.6471 16.8364 17.896 16.1423C18.1448 15.4482 18.1448 14.8532 18.0701 14.7293C17.9955 14.6053 17.7965 14.5309 17.4979 14.3822Z" fill="currentColor"></path>
    </g>
    <defs>
      <clipPath id="clip0_435_173">
        <rect width="24" height="24" fill="currentColor"></rect>
      </clipPath>
    </defs>
  </symbol>
  <symbol fill="none" xmlns="http://www.w3.org/2000/svg" viewBox="0 0 18 18" id="map-pin">
    <path d="M15.75 7.5C15.75 12.75 9 17.25 9 17.25C9 17.25 2.25 12.75 2.25 7.5C2.25 5.70979 2.96116 3.9929 4.22703 2.72703C5.4929 1.46116 7.20979 0.75 9 0.75C10.7902 0.75 12.5071 1.46116 13.773 2.72703C15.0388 3.9929 15.75 5.70979 15.75 7.5Z" stroke="currentColor" stroke-linecap="round" stroke-linejoin="round"></path>
    <path d="M9 9.75C10.2426 9.75 11.25 8.74264 11.25 7.5C11.25 6.25736 10.2426 5.25 9 5.25C7.75736 5.25 6.75 6.25736 6.75 7.5C6.75 8.74264 7.75736 9.75 9 9.75Z" stroke="currentColor" stroke-linecap="round" stroke-linejoin="round"></path>
  </symbol>
  <symbol fill="none" xmlns="http://www.w3.org/2000/svg" viewBox="0 0 18 18" id="clock">
    <path d="M8.99998 0C4.02978 0 0 4.02978 0 8.99998C0 13.9701 4.02978 18 8.99998 18C13.9702 18 17.9999 13.9701 17.9999 8.99998C17.9999 4.02978 13.9702 0 8.99998 0ZM9.56252 16.8464V15.7499H8.43748V16.8464C4.54506 16.5697 1.43046 13.455 1.15361 9.5626H2.24998V8.43755H1.15361C1.43046 4.54503 4.54506 1.43043 8.43748 1.15357V2.24994H9.56252V1.15361C13.455 1.43043 16.5695 4.54506 16.8463 8.43759H15.75V9.56263H16.8463C16.5695 13.455 13.4549 16.5697 9.56252 16.8464ZM13.1407 6.60933C13.2176 6.74344 13.1715 6.91598 13.0375 6.99396L10.0663 8.70884C10.092 8.80444 10.125 8.89678 10.125 8.99998C10.125 9.6218 9.62121 10.1249 9.00002 10.1249C8.37864 10.1249 7.87497 9.6218 7.87497 8.99998L4.82192 7.23776C4.5527 7.08184 4.46048 6.73791 4.61588 6.46877C4.77073 6.19852 5.11517 6.1063 5.38435 6.26233L8.45506 8.03549C8.6187 7.94323 8.7978 7.87509 9.00002 7.87509C9.31427 7.87509 9.59698 8.0047 9.80146 8.21348L12.7562 6.50613C12.8881 6.42808 13.0605 6.47422 13.1407 6.60933Z" fill="currentColor"></path>
  </symbol>
  <symbol fill="none" xmlns="http://www.w3.org/2000/svg" viewBox="0 0 18 18" id="phone">
    <path d="M16.5001 12.6901V14.9401C16.5009 15.1489 16.4581 15.3557 16.3745 15.5471C16.2908 15.7385 16.168 15.9103 16.0141 16.0515C15.8602 16.1927 15.6785 16.3002 15.4806 16.3671C15.2828 16.434 15.0731 16.4589 14.8651 16.4401C12.5572 16.1893 10.3403 15.4007 8.39257 14.1376C6.58044 12.9861 5.04407 11.4497 3.89257 9.63757C2.62506 7.68098 1.83625 5.45332 1.59007 3.13507C1.57133 2.92767 1.59598 2.71864 1.66245 2.52129C1.72892 2.32394 1.83575 2.14259 1.97615 1.98879C2.11654 1.83499 2.28743 1.7121 2.47792 1.62796C2.6684 1.54382 2.87433 1.50027 3.08257 1.50007H5.33257C5.69655 1.49649 6.04942 1.62538 6.32539 1.86272C6.60137 2.10006 6.78163 2.42966 6.83257 2.79007C6.92754 3.51012 7.10366 4.21712 7.35757 4.89757C7.45848 5.16602 7.48032 5.45776 7.4205 5.73823C7.36069 6.01871 7.22172 6.27616 7.02007 6.48007L6.06757 7.43257C7.13524 9.31023 8.68991 10.8649 10.5676 11.9326L11.5201 10.9801C11.724 10.7784 11.9814 10.6395 12.2619 10.5796C12.5424 10.5198 12.8341 10.5417 13.1026 10.6426C13.783 10.8965 14.49 11.0726 15.2101 11.1676C15.5744 11.219 15.9071 11.4025 16.145 11.6832C16.3828 11.9639 16.5092 12.3223 16.5001 12.6901Z" stroke="currentColor" stroke-linecap="round" stroke-linejoin="round"></path>
  </symbol>
  <symbol fill="none" xmlns="http://www.w3.org/2000/svg" viewBox="0 0 18 18" id="mail">
    <path d="M3 3H15C15.825 3 16.5 3.675 16.5 4.5V13.5C16.5 14.325 15.825 15 15 15H3C2.175 15 1.5 14.325 1.5 13.5V4.5C1.5 3.675 2.175 3 3 3Z" stroke="currentColor" stroke-linecap="round" stroke-linejoin="round"></path>
    <path d="M16.5 4.5L9 9.75L1.5 4.5" stroke="currentColor" stroke-linecap="round" stroke-linejoin="round"></path>
  </symbol>
  <symbol fill="none" xmlns="http://www.w3.org/2000/svg" viewBox="0 0 24 25" id="vk">
    <path d="M23.8727 18.1252C23.8437 18.0625 23.8166 18.0105 23.7914 17.9688C23.375 17.2177 22.5793 16.2957 21.4047 15.2027L21.3799 15.1777L21.3675 15.1654L21.3549 15.1528H21.3423C20.8092 14.6439 20.4716 14.3017 20.3303 14.1264C20.0716 13.7927 20.0137 13.4549 20.155 13.1126C20.2549 12.8539 20.6301 12.3077 21.2797 11.4733C21.6213 11.031 21.892 10.6766 22.0918 10.4095C23.5331 8.49044 24.1579 7.26413 23.9662 6.73009L23.8918 6.60529C23.8418 6.53016 23.7127 6.46142 23.5046 6.39874C23.2961 6.33619 23.0296 6.32584 22.7047 6.36753L19.106 6.39243C19.0477 6.37174 18.9644 6.37367 18.856 6.39874C18.7477 6.42381 18.6935 6.43639 18.6935 6.43639L18.6308 6.46774L18.5811 6.50539C18.5395 6.53029 18.4936 6.57408 18.4436 6.63668C18.3938 6.69905 18.3522 6.77226 18.319 6.85567C17.9272 7.86523 17.4817 8.80386 16.9817 9.67153C16.6735 10.1889 16.3904 10.6373 16.1319 11.0169C15.8737 11.3965 15.6571 11.6761 15.4823 11.8553C15.3072 12.0347 15.1492 12.1785 15.0073 12.2871C14.8657 12.3957 14.7575 12.4416 14.6826 12.4248C14.6076 12.408 14.5369 12.3913 14.47 12.3747C14.3534 12.2995 14.2597 12.1974 14.189 12.0681C14.118 11.9387 14.0702 11.776 14.0452 11.5799C14.0203 11.3837 14.0056 11.2149 14.0014 11.0731C13.9975 10.9313 13.9993 10.7309 14.0078 10.4723C14.0164 10.2135 14.0203 10.0384 14.0203 9.94663C14.0203 9.62953 14.0265 9.28539 14.0389 8.91411C14.0515 8.54283 14.0617 8.24865 14.0702 8.03193C14.0787 7.815 14.0827 7.58548 14.0827 7.34351C14.0827 7.10154 14.068 6.91178 14.0389 6.77405C14.0102 6.6365 13.9661 6.50298 13.908 6.37354C13.8496 6.24422 13.7641 6.14419 13.6519 6.07318C13.5394 6.00226 13.3996 5.94597 13.2333 5.90415C12.7917 5.80408 12.2294 5.74994 11.5462 5.74153C9.99681 5.72487 9.00124 5.82508 8.55972 6.04201C8.38478 6.13367 8.22648 6.25891 8.08494 6.41733C7.93495 6.60095 7.91402 6.70116 8.0223 6.71764C8.52221 6.79264 8.87611 6.97205 9.0844 7.25571L9.15946 7.40602C9.21784 7.51446 9.27614 7.70646 9.33448 7.98174C9.39273 8.25702 9.43033 8.56154 9.44687 8.89513C9.48845 9.5043 9.48845 10.0258 9.44687 10.4595C9.40516 10.8935 9.36577 11.2313 9.32818 11.4733C9.29058 11.7153 9.23439 11.9113 9.15946 12.0615C9.0844 12.2117 9.03446 12.3034 9.00942 12.3368C8.98443 12.3701 8.9636 12.3911 8.94706 12.3993C8.83878 12.4409 8.72616 12.462 8.60961 12.462C8.49289 12.462 8.35134 12.4036 8.18477 12.2867C8.01823 12.1698 7.8454 12.0093 7.66626 11.8049C7.48712 11.6004 7.28509 11.3146 7.06009 10.9476C6.83526 10.5805 6.60198 10.1467 6.36039 9.64606L6.1605 9.28302C6.03555 9.04947 5.86486 8.7094 5.64825 8.26312C5.43152 7.81666 5.23995 7.3848 5.07342 6.96763C5.00685 6.79242 4.90684 6.65903 4.77357 6.56724L4.71103 6.52959C4.66945 6.49627 4.60271 6.4609 4.51115 6.4232C4.41945 6.38555 4.32378 6.35854 4.22373 6.34193L0.799884 6.36683C0.450012 6.36683 0.21262 6.44621 0.0876214 6.60476L0.0375958 6.67976C0.0126049 6.72154 0 6.78826 0 6.88009C0 6.97188 0.0249909 7.08453 0.0750165 7.21792C0.574835 8.39445 1.11838 9.52911 1.70564 10.6221C2.29291 11.7151 2.80323 12.5955 3.2363 13.2626C3.66946 13.9301 4.11098 14.5601 4.56086 15.1524C5.01075 15.7448 5.30854 16.1244 5.45424 16.2912C5.60011 16.4583 5.71469 16.5832 5.79798 16.6667L6.11043 16.967C6.31036 17.1673 6.60395 17.4071 6.99133 17.6866C7.3788 17.9662 7.80776 18.2415 8.27843 18.5129C8.74918 18.7838 9.29684 19.0049 9.9217 19.1759C10.5465 19.3471 11.1546 19.4158 11.7461 19.3826H13.1831C13.4746 19.3574 13.6954 19.2656 13.8455 19.1072L13.8952 19.0445C13.9286 18.9947 13.9599 18.9173 13.9888 18.8132C14.018 18.7089 14.0326 18.594 14.0326 18.4691C14.024 18.1104 14.0513 17.7871 14.1136 17.4993C14.1759 17.2115 14.2469 16.9946 14.3263 16.8485C14.4056 16.7025 14.4952 16.5793 14.5948 16.4795C14.6947 16.3794 14.7659 16.3188 14.8076 16.2979C14.8491 16.2769 14.8822 16.2627 14.9072 16.2541C15.1072 16.1874 15.3425 16.252 15.6135 16.4483C15.8842 16.6444 16.1382 16.8865 16.3758 17.1742C16.6132 17.4622 16.8985 17.7853 17.2317 18.144C17.565 18.5028 17.8565 18.7695 18.1063 18.945L18.3562 19.0952C18.523 19.1954 18.7396 19.2872 19.0062 19.3706C19.2724 19.454 19.5056 19.4748 19.7058 19.4332L22.9046 19.3832C23.221 19.3832 23.4672 19.3307 23.6418 19.2266C23.8168 19.1223 23.9207 19.0074 23.9543 18.8825C23.9877 18.7574 23.9895 18.6154 23.9606 18.4567C23.931 18.2985 23.9018 18.1878 23.8727 18.1252Z" fill="currentColor"></path>
  </symbol>
  <symbol fill="none" xmlns="http://www.w3.org/2000/svg" viewBox="0 0 24 25" id="ya">
    <path d="M18.667 21.9298H15.5133V5.78626H14.105C11.5265 5.78626 10.1777 7.11959 10.1777 9.10934C10.1777 11.3657 11.11 12.4119 13.0339 13.7452L14.6207 14.8529L10.0587 21.9298H6.66699L10.7728 15.6119C8.41245 13.8683 7.08352 12.1657 7.08352 9.29395C7.08352 5.70421 9.50336 3.26318 14.0852 3.26318H18.6472V21.9298H18.667Z" fill="currentColor"></path>
  </symbol>
  <symbol fill="none" xmlns="http://www.w3.org/2000/svg" viewBox="0 0 24 25" id="youtube">
    <path d="M12.4245 19.189L8.4905 19.1171C7.21676 19.0921 5.93985 19.1421 4.69108 18.8827C2.79142 18.4953 2.65684 16.5955 2.51602 15.0019C2.32198 12.7616 2.3971 10.4806 2.76328 8.25892C2.96999 7.01234 3.78352 6.2685 5.0416 6.18756C9.28856 5.8938 13.5638 5.92862 17.8013 6.06566C18.2488 6.07823 18.6995 6.1469 19.1407 6.22506C21.3191 6.60628 21.3722 8.75916 21.5134 10.5715C21.6542 12.4025 21.5948 14.2429 21.3256 16.0615C21.1097 17.5672 20.6965 18.8299 18.953 18.9518C16.7684 19.1112 14.6339 19.2395 12.4432 19.1986C12.4433 19.189 12.4307 19.189 12.4245 19.189ZM10.1117 15.3769C11.7579 14.4332 13.3728 13.5052 15.0096 12.5678C13.3603 11.6241 11.7485 10.6962 10.1117 9.75878V15.3769Z" fill="currentColor"></path>
  </symbol>
  <symbol fill="none" xmlns="http://www.w3.org/2000/svg" viewBox="0 0 24 25" id="zen">
    <path d="M22.5093 12.1099C22.5113 12.1099 22.5127 12.1099 22.5146 12.1099C22.6485 12.1099 22.7762 12.0537 22.8669 11.9553C22.9591 11.8555 23.0047 11.7215 22.9927 11.5862C22.5108 6.28553 18.3141 2.08745 13.013 1.60457C12.8786 1.59401 12.7433 1.63769 12.6434 1.73033C12.5436 1.82249 12.4879 1.95257 12.4893 2.08841C12.5729 9.13289 13.5021 12.0115 22.5093 12.1099ZM22.5093 13.0833C13.5021 13.1817 12.5733 16.0603 12.4898 23.1047C12.4884 23.2406 12.5441 23.3707 12.6439 23.4628C12.7332 23.5449 12.8498 23.5905 12.9698 23.5905C12.9842 23.5905 12.9991 23.59 13.0135 23.5886C18.3146 23.1057 22.5113 18.9081 22.9927 13.607C23.0047 13.4716 22.9596 13.3377 22.8669 13.2379C22.7743 13.138 22.6452 13.0886 22.5093 13.0833ZM10.9553 1.60697C5.67095 2.10377 1.48775 6.30089 1.00823 11.5871C0.996227 11.7225 1.04135 11.8564 1.13399 11.9563C1.22471 12.0547 1.35287 12.1103 1.48631 12.1103C1.48823 12.1103 1.49015 12.1103 1.49207 12.1103C10.4695 12.0071 11.3964 9.13001 11.4809 2.09033C11.4823 1.95449 11.4261 1.82393 11.3263 1.73177C11.2255 1.63961 11.0906 1.59449 10.9553 1.60697ZM1.49159 13.0828C1.34231 13.066 1.22519 13.1371 1.13351 13.2369C1.04135 13.3367 0.995747 13.4707 1.00775 13.606C1.48727 18.8923 5.67095 23.0894 10.9553 23.5862C10.9701 23.5876 10.9855 23.5881 11.0004 23.5881C11.1204 23.5881 11.2365 23.543 11.3258 23.4609C11.4257 23.3687 11.4818 23.2382 11.4804 23.1023C11.3959 16.0631 10.4695 13.186 1.49159 13.0828Z" fill="currentColor"></path>
  </symbol>
  <symbol fill="none" xmlns="http://www.w3.org/2000/svg" viewBox="0 0 24 25" id="gis">
    <path d="M21.3338 12.3728C21.3338 11.1971 21.111 10.0757 20.7227 9.03564C20.62 12.4592 17.1403 15.1098 15.0973 16.8638H20.2109C20.9257 15.5245 21.3338 13.9966 21.3338 12.3728ZM17.637 4.83449C16.018 3.57394 13.988 2.81592 11.777 2.81592C6.49868 2.81592 2.21973 7.09488 2.21973 12.3728C2.21973 17.6506 6.49868 21.9294 11.777 21.9294C14.194 21.9294 16.3948 21.0251 18.0778 19.5452H11.1587L11.1376 17.5133C15.3066 13.8891 17.8623 11.4381 17.8623 9.07062C17.8623 8.19077 17.5271 7.08047 16.0189 7.08047C14.8246 7.08047 13.6725 7.77226 13.8819 10.6629H11.452C10.8444 7.31136 12.667 4.65055 16.1443 4.65055C16.6834 4.65055 17.182 4.7149 17.637 4.83449Z" fill="currentColor"></path>
  </symbol>
  <symbol fill="none" xmlns="http://www.w3.org/2000/svg" viewBox="0 0 24 25" id="tg-f">
    <path d="M20.9726 4.10668L3.48924 10.7487C2.29094 11.2103 2.3121 11.8639 3.28373 12.1677L7.75959 13.5434L18.1423 7.10238C18.6244 6.78673 19.0716 6.9654 18.706 7.28254L10.3043 14.7614L9.98241 19.307C10.4509 19.307 10.6549 19.106 10.8966 18.8678L13.0832 16.7923L17.6165 20.0843C18.443 20.5458 19.0339 20.3076 19.2545 19.3279L22.2313 5.50924L22.2298 5.51073C22.4928 4.30173 21.7841 3.81783 20.9726 4.10668Z" fill="currentColor"></path>
  </symbol>
  <symbol fill="none" xmlns="http://www.w3.org/2000/svg" viewBox="0 0 24 24" id="cart">
    <path d="M9 22C9.55228 22 10 21.5523 10 21C10 20.4477 9.55228 20 9 20C8.44772 20 8 20.4477 8 21C8 21.5523 8.44772 22 9 22Z" stroke="#272624" stroke-width="2" stroke-linecap="round" stroke-linejoin="round"></path>
    <path d="M20 22C20.5523 22 21 21.5523 21 21C21 20.4477 20.5523 20 20 20C19.4477 20 19 20.4477 19 21C19 21.5523 19.4477 22 20 22Z" stroke="#272624" stroke-width="2" stroke-linecap="round" stroke-linejoin="round"></path>
    <path d="M1 1H5L7.68 14.39C7.77144 14.8504 8.02191 15.264 8.38755 15.5583C8.75318 15.8526 9.2107 16.009 9.68 16H19.4C19.8693 16.009 20.3268 15.8526 20.6925 15.5583C21.0581 15.264 21.3086 14.8504 21.4 14.39L23 6H6" stroke="#272624" stroke-width="2" stroke-linecap="round" stroke-linejoin="round"></path>
  </symbol>
  <symbol fill="none" xmlns="http://www.w3.org/2000/svg" viewBox="0 0 24 24" id="user">
    <path d="M20 21V19C20 17.9391 19.5786 16.9217 18.8284 16.1716C18.0783 15.4214 17.0609 15 16 15H8C6.93913 15 5.92172 15.4214 5.17157 16.1716C4.42143 16.9217 4 17.9391 4 19V21" stroke="#272624" stroke-width="2" stroke-linecap="round" stroke-linejoin="round"></path>
    <path d="M12 11C14.2091 11 16 9.20914 16 7C16 4.79086 14.2091 3 12 3C9.79086 3 8 4.79086 8 7C8 9.20914 9.79086 11 12 11Z" stroke="#272624" stroke-width="2" stroke-linecap="round" stroke-linejoin="round"></path>
  </symbol>
  <symbol fill="none" xmlns="http://www.w3.org/2000/svg" viewBox="0 0 14 6" id="arrow">
    <path d="M7 6L0.0717959 1.30507e-06L13.9282 9.36995e-08L7 6Z" fill="currentColor"></path>
  </symbol>
  <symbol fill="none" xmlns="http://www.w3.org/2000/svg" viewBox="0 0 24 24" id="mailmob">
    <path d="M4 4H20C21.1 4 22 4.9 22 6V18C22 19.1 21.1 20 20 20H4C2.9 20 2 19.1 2 18V6C2 4.9 2.9 4 4 4Z" fill="#272624"></path>
    <path d="M22 6L12 13L2 6" stroke="white" stroke-linecap="round" stroke-linejoin="round"></path>
  </symbol>
  <symbol fill="none" xmlns="http://www.w3.org/2000/svg" viewBox="0 0 24 24" id="tgmob">
    <path d="M20.9726 3.50987L3.48924 10.1519C2.29094 10.6135 2.3121 11.2671 3.28373 11.5709L7.75959 12.9466L18.1423 6.50557C18.6244 6.18992 19.0716 6.36859 18.706 6.68572L10.3043 14.1646L9.98241 18.7102C10.4509 18.7102 10.6549 18.5092 10.8966 18.271L13.0832 16.1954L17.6165 19.4874C18.443 19.949 19.0339 19.7108 19.2545 18.7311L22.2313 4.91242L22.2298 4.91391C22.4928 3.70491 21.7841 3.22102 20.9726 3.50987Z" fill="#272624"></path>
  </symbol>
  <symbol fill="none" xmlns="http://www.w3.org/2000/svg" viewBox="0 0 24 24" id="wamob">
    <g clip-path="url(#clip0_582_563)">
      <path fill-rule="evenodd" clip-rule="evenodd" d="M20.5027 3.48773C18.2468 1.23984 15.2466 0.00126346 12.0502 0C5.46407 0 0.103801 5.33464 0.101166 11.8918C0.100287 13.9878 0.650531 16.0338 1.69612 17.8373L0.000976562 24L6.33532 22.3463C8.08054 23.2937 10.0455 23.793 12.0454 23.7938H12.0503C18.6357 23.7938 23.9965 18.4585 23.9991 11.9013C24.0004 8.72359 22.7587 5.73561 20.5027 3.48773ZM12.0503 21.7852H12.0462C10.2642 21.7845 8.51625 21.308 6.99144 20.4074L6.62876 20.1932L2.86992 21.1746L3.87325 17.527L3.63707 17.153C2.64293 15.5792 2.11784 13.7602 2.11862 11.8925C2.1208 6.4425 6.57608 2.00857 12.0542 2.00857C14.7069 2.00958 17.2005 3.0391 19.0756 4.90746C20.9507 6.77583 21.9827 9.25933 21.9817 11.9005C21.9794 17.3509 17.5242 21.7852 12.0503 21.7852ZM17.4979 14.3822C17.1993 14.2334 15.7315 13.5145 15.4578 13.4154C15.1841 13.3162 14.9851 13.2666 14.786 13.5641C14.587 13.8616 14.0148 14.5309 13.8406 14.7292C13.6665 14.9276 13.4924 14.9524 13.1938 14.8036C12.8952 14.6549 11.9332 14.3411 10.7928 13.3287C9.9053 12.5409 9.30605 11.5677 9.13189 11.2702C8.95774 10.9727 9.11338 10.8119 9.26283 10.6637C9.39712 10.5306 9.56138 10.3167 9.71068 10.1431C9.85993 9.96962 9.90969 9.84567 10.0092 9.64738C10.1087 9.44905 10.059 9.2755 9.98433 9.12677C9.90969 8.97803 9.31262 7.5154 9.06379 6.92045C8.82147 6.341 8.57531 6.4194 8.39204 6.41033C8.21809 6.40171 8.01885 6.39987 7.81984 6.39987C7.62079 6.39987 7.29735 6.47425 7.02366 6.77171C6.75 7.06921 5.97875 7.78812 5.97875 9.25072C5.97875 10.7055 7.03708 12.1111 7.19536 12.3213C7.19621 12.3225 7.19704 12.3236 7.19784 12.3246C7.3471 12.523 9.30312 15.5245 12.2981 16.8116C13.0104 17.1178 13.5666 17.3006 14.0002 17.4376C14.7154 17.6637 15.3663 17.6318 15.8807 17.5553C16.4543 17.47 17.6471 16.8364 17.896 16.1423C18.1448 15.4482 18.1448 14.8532 18.0701 14.7293C17.9955 14.6053 17.7965 14.5309 17.4979 14.3822Z" fill="#272624"></path>
      <path fill-rule="evenodd" clip-rule="evenodd" d="M12.0503 21.7852H12.0462C10.2642 21.7845 8.51625 21.308 6.99144 20.4074L6.62876 20.1932L2.86992 21.1746L3.87325 17.527L3.63707 17.153C2.64293 15.5792 2.11784 13.7602 2.11862 11.8925C2.1208 6.4425 6.57608 2.00857 12.0542 2.00857C14.7069 2.00958 17.2005 3.0391 19.0756 4.90746C20.9507 6.77583 21.9827 9.25933 21.9817 11.9005C21.9794 17.3509 17.5242 21.7852 12.0503 21.7852ZM15.4578 13.4154C15.7315 13.5145 17.1993 14.2334 17.4979 14.3822C17.7965 14.5309 17.9955 14.6053 18.0701 14.7293C18.1448 14.8532 18.1448 15.4482 17.896 16.1423C17.6471 16.8364 16.4543 17.47 15.8807 17.5553C15.3663 17.6318 14.7154 17.6637 14.0002 17.4376C13.5666 17.3006 13.0104 17.1178 12.2981 16.8116C9.30312 15.5245 7.3471 12.523 7.19784 12.3246L7.19536 12.3213C7.03708 12.1111 5.97875 10.7055 5.97875 9.25072C5.97875 7.78812 6.75 7.06921 7.02366 6.77171C7.29735 6.47425 7.62079 6.39987 7.81984 6.39987C8.01885 6.39987 8.21809 6.40171 8.39204 6.41033C8.57531 6.4194 8.82147 6.341 9.06379 6.92045C9.31262 7.5154 9.90969 8.97803 9.98433 9.12677C10.059 9.2755 10.1087 9.44905 10.0092 9.64738C9.90969 9.84567 9.85993 9.96962 9.71068 10.1431C9.56138 10.3167 9.39712 10.5306 9.26283 10.6637C9.11338 10.8119 8.95774 10.9727 9.13189 11.2702C9.30605 11.5677 9.9053 12.5409 10.7928 13.3287C11.9332 14.3411 12.8952 14.6549 13.1938 14.8036C13.4924 14.9524 13.6665 14.9276 13.8406 14.7292C14.0148 14.5309 14.587 13.8616 14.786 13.5641C14.9851 13.2666 15.1841 13.3162 15.4578 13.4154Z" fill="#272624"></path>
      <path d="M15.4575 13.4153C15.7312 13.5145 17.1991 14.2334 17.4977 14.3821C17.7962 14.5309 17.9953 14.6053 18.0699 14.7292C18.1445 14.8532 18.1445 15.4481 17.8957 16.1423C17.6469 16.8364 16.4541 17.47 15.8805 17.5553C15.366 17.6318 14.7152 17.6637 13.9999 17.4376C13.5663 17.3005 13.0102 17.1177 12.2979 16.8116C9.30288 15.5244 7.34687 12.5229 7.19761 12.3246L7.19512 12.3213C7.03685 12.1111 5.97852 10.7054 5.97852 9.25069C5.97852 7.78809 6.74977 7.06918 7.02343 6.77169C7.29712 6.47422 7.62056 6.39984 7.8196 6.39984C8.01861 6.39984 8.21785 6.40169 8.39181 6.41031C8.57507 6.41938 8.82123 6.34098 9.06356 6.92042C9.31239 7.51538 9.90945 8.97801 9.9841 9.12674C10.0587 9.27547 10.1085 9.44902 10.009 9.64735C9.90945 9.84565 9.8597 9.9696 9.71044 10.1431C9.56115 10.3167 9.39689 10.5306 9.2626 10.6637C9.11315 10.8118 8.95751 10.9727 9.13166 11.2702C9.30581 11.5676 9.90506 12.5408 10.7926 13.3287C11.933 14.3411 12.895 14.6549 13.1935 14.8036C13.4921 14.9524 13.6663 14.9275 13.8404 14.7292C14.0146 14.5309 14.5868 13.8616 14.7858 13.5641C14.9849 13.2666 15.1839 13.3162 15.4575 13.4153Z" fill="white"></path>
    </g>
    <defs>
      <clipPath id="clip0_582_563">
        <rect width="24" height="24" fill="white"></rect>
      </clipPath>
    </defs>
  </symbol>
  <symbol fill="none" xmlns="http://www.w3.org/2000/svg" viewBox="0 0 24 24" id="loc">
    <path d="M17.5724 10.1325C17.6924 10.1925 17.8274 10.23 17.9549 10.23C18.0899 10.23 18.2174 10.2 18.3374 10.1325C18.4724 10.0575 21.6149 8.4 21.6149 5.16C21.6149 3.1425 19.9724 1.5 17.9549 1.5C15.9374 1.5 14.2949 3.1425 14.2949 5.16C14.2949 8.4 17.4374 10.0575 17.5724 10.1325ZM17.8799 3.675H17.9774C18.8399 3.675 19.5374 4.3725 19.5374 5.235C19.5374 6.09 18.8399 6.795 17.9774 6.795C17.1149 6.795 16.3724 6.09 16.3724 5.235C16.3724 4.365 17.0174 3.675 17.8799 3.675Z" fill="black"></path>
    <path d="M18.2398 14.2425H5.75977C4.81477 14.2425 4.04227 13.47 4.04227 12.525V12.1875C4.04227 11.2425 4.81477 10.47 5.75977 10.47H13.0123C13.4698 10.47 13.8448 10.095 13.8448 9.63749C13.8448 9.17999 13.4773 8.80499 13.0123 8.80499H5.75977C3.89977 8.80499 2.38477 10.32 2.38477 12.18V12.5175C2.38477 14.3775 3.89977 15.8925 5.75977 15.8925H18.2323C19.1773 15.8925 19.9498 16.665 19.9498 17.61C19.9498 18.555 19.1773 19.3275 18.2323 19.3275H10.3048C9.84727 19.3275 9.47227 19.7025 9.47227 20.16C9.47227 20.6175 9.83977 20.9925 10.3048 20.9925H18.2398C20.0998 20.9925 21.6148 19.4775 21.6148 17.6175C21.6148 15.7575 20.0998 14.2425 18.2398 14.2425Z" fill="black"></path>
    <path d="M7.97953 18.48C7.65703 18.1575 7.13203 18.1575 6.80953 18.48L6.09703 19.2L5.38453 18.4875C5.06203 18.165 4.53703 18.165 4.21453 18.4875C3.89203 18.81 3.89203 19.335 4.21453 19.6575L4.92703 20.37L4.21453 21.0825C3.89203 21.405 3.89203 21.93 4.21453 22.2525C4.37203 22.4175 4.58203 22.5 4.79203 22.5C5.00203 22.5 5.21953 22.4175 5.37703 22.26L6.08953 21.5475L6.80203 22.26C6.97453 22.4175 7.18453 22.5 7.39453 22.5C7.60453 22.5 7.82203 22.4175 7.97953 22.26C8.30203 21.9375 8.30203 21.4125 7.97953 21.09L7.26703 20.3775L7.97953 19.665C8.30953 19.3275 8.30953 18.81 7.97953 18.48Z" fill="black"></path>
  </symbol>
  <symbol fill="none" xmlns="http://www.w3.org/2000/svg" viewBox="0 0 18 18" id="arrow-up">
    <path d="M9 14.25L9 3.75" stroke="#272624" stroke-width="2" stroke-linecap="round" stroke-linejoin="round"></path>
    <path d="M3.75 9L9 3.75L14.25 9" stroke="#272624" stroke-width="2" stroke-linecap="round" stroke-linejoin="round"></path>
  </symbol>
</svg>